<svg width="32" height="32" viewBox="0 0 32 32" fill="none" xmlns="http://www.w3.org/2000/svg">
<path d="M31 11.5H19.55L16 1L12.45 11.5H1L10.25 18L6.7 28.5L16 22L25.25 28.5L21.7 18L31 11.5Z" fill="#FFC700"/>
<path d="M23.1016 10.1502L25.1016 4.4502L19.8516 8.0502L20.6016 10.1502H23.1016Z" fill="#FFA98E"/>
<path d="M13.9512 25.0006L16.0012 31.0006L18.0512 25.0006L16.0012 23.6006L13.9512 25.0006Z" fill="#FFA98E"/>
<path d="M25.3512 17.1504L23.4512 18.4504L24.2512 20.8504H30.7012L25.3512 17.1504Z" fill="#FFA98E"/>
<path d="M12.1504 8.0502L6.90039 4.4502L8.90039 10.1502H11.4004L12.1504 8.0502Z" fill="#FFA98E"/>
<path d="M6.65078 17.1504L1.30078 20.8504H7.75078L8.55078 18.4504L6.65078 17.1504Z" fill="#FFA98E"/>
</svg>
